<svg id="Capa_1" enable-background="new 0 0 511.562 511.562" height="512" viewBox="0 0 511.562 511.562" width="512" xmlns="http://www.w3.org/2000/svg"><g><path d="m356.52 257.218-53.847-11.398c-22.697-20.942-55.765-29.37-87.164-19.146-39.609 12.901-63.889 51.377-60.53 91.213l-91.182-67.345c-2.822-2.085-6.713-1.934-9.365.363-.772.668-7.629 6.867-10.657 18.534-2.525 9.731-1.384 19.338 1.453 28.022l-19.785-10.07c-1.909-.972-4.143-1.081-6.138-.299s-3.56 2.379-4.301 4.389c-.26.705-6.329 17.51-3.51 39.73 2.189 17.249 10.25 40.673 34.88 61.209-12.227-.017-23.795-3.831-34.551-11.414-2.64-1.861-6.176-1.824-8.775.095-2.6 1.918-3.679 5.285-2.678 8.357 9.077 27.875 25.203 53.063 46.635 72.84 3.044 2.809 7.79 2.618 10.598-.426 2.809-3.044 2.619-7.789-.425-10.598-14.746-13.607-26.739-30.026-35.298-48.189 14.518 5.232 30.133 5.722 46.037 1.331 2.879-.795 5.013-3.222 5.431-6.18s-.958-5.881-3.505-7.443c-47.244-28.98-46.066-68.695-42.888-85.801l31.865 16.218c3.055 1.555 6.776.84 9.038-1.736s2.489-6.359.551-9.187c-15.106-22.052-11.441-36.459-7.646-43.337l100.922 74.539c2.623 1.937 6.196 1.958 8.842.051 2.645-1.907 3.754-5.305 2.745-8.406-12.488-38.351 8.543-79.71 46.881-92.196 38.353-12.488 79.711 8.547 92.197 46.892 12.955 39.761 9.65 82.186-9.307 119.46s-51.294 64.934-91.057 77.885c-43.258 14.098-90.434 8.688-129.431-14.841-3.545-2.14-8.157-.999-10.296 2.547-2.14 3.547-1 8.156 2.547 10.296 27.088 16.344 57.77 24.707 88.685 24.707 17.853 0 35.789-2.792 53.142-8.447 43.571-14.192 79.007-44.502 99.78-85.348 11.088-21.803 17.286-45.214 18.499-68.931l36.887-41.027c6.888-7.656 9.095-18.074 5.905-27.869-3.19-9.795-11.111-16.914-21.184-19.044zm4.127 36.882-26.053 28.977c-1.063-13.407-3.71-26.783-7.982-39.895-2.192-6.73-5.126-13.014-8.675-18.799l35.479 7.51c4.768 1.008 8.517 4.378 10.027 9.014 1.509 4.636.465 9.568-2.796 13.193z"/><path d="m282.272 300.022c.778 0 1.548-.117 2.296-.361 2.742-.894 4.795-3.323 5.781-6.841.976-3.482.788-7.623-.527-11.66s-3.603-7.494-6.442-9.733c-2.867-2.262-5.956-3.016-8.701-2.123-2.742.894-4.795 3.323-5.781 6.841-.976 3.482-.788 7.623.527 11.66 2.365 7.255 7.783 12.217 12.847 12.217z"/><path d="m248.542 311.009c.778 0 1.548-.117 2.297-.361 2.742-.893 4.795-3.323 5.781-6.841.975-3.482.788-7.623-.527-11.66s-3.603-7.494-6.441-9.733c-2.868-2.263-5.959-3.016-8.701-2.123-5.623 1.832-7.98 10.131-5.254 18.5 2.363 7.256 7.781 12.219 12.845 12.218z"/><path d="m507.986 34.227c-1.626-14.833-13.621-26.358-28.521-27.404-47.686-3.344-96.034-4.025-143.688-2.022-6.265.253-12.805.575-19.438.956-4.135.238-7.295 3.783-7.057 7.918.238 4.136 3.788 7.297 7.918 7.057 6.548-.376 13.002-.694 19.194-.944 47.11-1.978 94.892-1.306 142.02 1.998 7.659.538 13.825 6.458 14.66 14.074 4.649 42.51 4.649 85.619.002 128.112-.175 1.569-.575 3.086-1.189 4.516-2.355 5.491-7.524 9.16-13.495 9.575-31.404 2.211-63.471 3.254-95.338 3.092-6.825-.014-13.173 3.258-17.024 8.801-9.89 14.234-26.344 28.175-38.401 37.359-1.326 1.01-2.601.626-3.243.308s-1.717-1.101-1.717-2.768v-26.05c0-10.788-8.437-19.816-19.236-20.554l-2.749-.187c-7.662-.537-13.831-6.482-14.669-14.134-4.65-42.5-4.647-85.587.009-128.06.393-3.55 1.917-6.773 4.408-9.321 2.896-2.962 2.843-7.71-.119-10.606s-7.71-2.843-10.606.119c-4.788 4.896-7.839 11.345-8.593 18.166-4.775 43.563-4.778 87.75-.01 131.334 1.629 14.87 13.628 26.42 28.578 27.468l2.756.188c2.934.201 5.231 2.655 5.231 5.588v26.05c0 6.922 3.853 13.131 10.054 16.206 2.569 1.274 5.321 1.901 8.057 1.901 3.869 0 7.704-1.255 10.934-3.711 12.92-9.842 30.63-24.898 41.634-40.736 1.027-1.479 2.749-2.36 4.606-2.36h.027c32.24.163 64.687-.891 96.458-3.128 11.599-.806 21.65-7.943 26.231-18.62 1.196-2.782 1.974-5.732 2.315-8.786 4.769-43.594 4.769-87.8.001-131.395z"/><path d="m315.058 54.238h148.979c4.142 0 7.5-3.358 7.5-7.5s-3.358-7.5-7.5-7.5h-148.979c-4.142 0-7.5 3.358-7.5 7.5s3.358 7.5 7.5 7.5z"/><path d="m315.058 84.831h148.979c4.142 0 7.5-3.358 7.5-7.5s-3.358-7.5-7.5-7.5h-148.979c-4.142 0-7.5 3.358-7.5 7.5s3.358 7.5 7.5 7.5z"/><path d="m315.058 115.425h83.8c4.142 0 7.5-3.358 7.5-7.5s-3.358-7.5-7.5-7.5h-83.8c-4.142 0-7.5 3.358-7.5 7.5s3.358 7.5 7.5 7.5z"/><path d="m459.724 262.769h-40.821c-4.142 0-7.5 3.358-7.5 7.5s3.358 7.5 7.5 7.5h40.821c4.142 0 7.5-3.358 7.5-7.5s-3.358-7.5-7.5-7.5z"/><path d="m443.774 306.791-26.364-18.568c-3.386-2.385-8.065-1.574-10.451 1.813-2.385 3.386-1.573 8.065 1.813 10.45l26.364 18.568c1.313.925 2.82 1.369 4.313 1.369 2.357 0 4.678-1.108 6.138-3.182 2.386-3.386 1.574-8.065-1.813-10.45z"/><path d="m413.098 253.683c1.492 0 3-.444 4.313-1.369l26.364-18.568c3.386-2.385 4.198-7.064 1.813-10.45s-7.063-4.198-10.451-1.813l-26.364 18.568c-3.386 2.385-4.198 7.064-1.813 10.45 1.46 2.074 3.781 3.182 6.138 3.182z"/></g></svg>