<svg id="Capa_1" enable-background="new 0 0 511.922 511.922" height="512" viewBox="0 0 511.922 511.922" width="512" xmlns="http://www.w3.org/2000/svg"><g><path d="m503.077 92.123c-1.786-16.459-11.593-30.855-26.231-38.508-3.67-1.918-8.201-.5-10.121 3.172-1.919 3.671-.499 8.202 3.172 10.121 10.194 5.329 17.023 15.36 18.269 26.833 1.953 18.006 3.572 36.055 4.871 54.132-157.364-13.381-316.786-13.381-474.151.002 1.3-18.077 2.918-36.127 4.871-54.133 1.783-16.435 14.973-29.302 31.363-30.594 127.802-10.065 257.383-10.485 385.14-1.247 4.147.298 7.723-2.808 8.021-6.939s-2.809-7.723-6.939-8.021c-128.509-9.292-258.849-8.871-387.4 1.254-23.572 1.858-42.538 20.332-45.097 43.928-11.793 108.715-11.793 218.961 0 327.677 2.56 23.595 21.525 42.069 45.098 43.928 67.024 5.28 134.521 7.92 202.019 7.92s134.994-2.64 202.02-7.92c23.571-1.859 42.537-20.333 45.097-43.929 11.791-108.715 11.791-218.961-.002-327.676zm-14.912 326.059c-1.783 16.434-14.974 29.3-31.363 30.592-133.271 10.5-268.416 10.5-401.681 0-16.391-1.292-29.581-14.159-31.364-30.592-9.177-84.61-11.137-170.157-5.887-255.167 158.025-13.573 318.16-13.572 476.182-.001 5.25 85.011 3.291 170.558-5.887 255.168z"/><path d="m39.784 100.841c0 17.069 13.888 30.957 30.957 30.957s30.957-13.887 30.957-30.957-13.888-30.957-30.957-30.957-30.957 13.887-30.957 30.957zm46.914 0c0 8.798-7.158 15.957-15.957 15.957s-15.957-7.158-15.957-15.957 7.158-15.957 15.957-15.957 15.957 7.158 15.957 15.957z"/><path d="m180.526 100.841c0 17.069 13.888 30.957 30.957 30.957s30.956-13.887 30.956-30.957-13.887-30.957-30.956-30.957-30.957 13.887-30.957 30.957zm46.913 0c0 8.798-7.158 15.957-15.956 15.957-8.799 0-15.957-7.158-15.957-15.957s7.158-15.957 15.957-15.957c8.798 0 15.956 7.158 15.956 15.957z"/><path d="m110.155 100.841c0 17.069 13.888 30.957 30.957 30.957s30.957-13.887 30.957-30.957-13.888-30.957-30.957-30.957-30.957 13.887-30.957 30.957zm46.914 0c0 8.798-7.158 15.957-15.957 15.957s-15.957-7.158-15.957-15.957 7.158-15.957 15.957-15.957 15.957 7.158 15.957 15.957z"/><path d="m94.451 281.363h58.955c21.29 0 38.611-17.321 38.611-38.611s-17.321-38.611-38.611-38.611h-58.955c-4.143 0-7.5 3.358-7.5 7.5v62.222c0 4.142 3.358 7.5 7.5 7.5zm7.5-62.221h51.455c13.02 0 23.611 10.592 23.611 23.611s-10.592 23.611-23.611 23.611h-51.455z"/><path d="m211.193 279.681c7.027-10.984 10.827-23.819 10.827-36.929 0-37.832-30.782-68.61-68.619-68.61h-73.95c-12.406 0-22.5 10.093-22.5 22.5v147.55c0 4.142 3.357 7.5 7.5 7.5s7.5-3.358 7.5-7.5v-147.55c0-4.135 3.364-7.5 7.5-7.5h73.95c29.565 0 53.619 24.049 53.619 53.61 0 12.508-4.434 24.7-12.483 34.33-1.454 1.739-2.043 4.042-1.604 6.266s1.861 4.129 3.868 5.184c20.805 10.937 33.729 32.264 33.729 55.661 0 34.639-28.181 62.82-62.82 62.82h-88.26c-4.136 0-7.5-3.364-7.5-7.5v-22.04c0-4.142-3.357-7.5-7.5-7.5s-7.5 3.358-7.5 7.5v22.04c0 12.407 10.094 22.5 22.5 22.5h88.26c42.91 0 77.82-34.91 77.82-77.82.001-26.095-12.963-50.105-34.337-64.512z"/><path d="m86.951 384.514c0 4.142 3.357 7.5 7.5 7.5h73.257c26.371 0 47.825-21.454 47.825-47.825s-21.454-47.826-47.825-47.826h-73.257c-4.143 0-7.5 3.358-7.5 7.5zm15-73.151h65.757c18.1 0 32.825 14.726 32.825 32.826s-14.726 32.825-32.825 32.825h-65.757z"/><path d="m352.47 221.47c-52.901 1.149-95.943 43.451-97.99 96.304-1.065 27.512 8.863 53.593 27.957 73.44 19.107 19.862 44.767 30.8 72.251 30.8 26.82 0 52.021-10.445 70.958-29.411 4.691-4.699 7.015-11.207 6.375-17.854-.649-6.737-4.235-12.772-9.839-16.558-8.906-6.018-20.858-4.904-28.417 2.648-10.438 10.43-24.316 16.173-39.077 16.173-22.188 0-41.776-13.082-50.518-32.784h128.302c12.378 0 22.471-9.987 22.499-22.262.063-27.207-10.625-52.709-30.099-71.809-19.466-19.089-45.17-29.289-72.402-28.687zm87.501 100.464c-.009 3.955-3.443 7.296-7.499 7.296h-138.758c-2.305 0-4.481 1.06-5.903 2.874-1.421 1.814-1.93 4.181-1.38 6.418 7.75 31.496 35.818 53.492 68.257 53.492 18.766 0 36.408-7.302 49.679-20.563 2.491-2.487 6.452-2.834 9.418-.831 1.883 1.272 3.087 3.301 3.306 5.567.123 1.279.02 3.735-2.06 5.817-16.103 16.127-37.533 25.009-60.343 25.009-23.367 0-45.188-9.305-61.441-26.2-16.239-16.88-24.684-39.063-23.778-62.46 1.74-44.941 38.343-80.91 83.328-81.888.637-.014 1.271-.021 1.906-.021 22.44 0 43.565 8.631 59.666 24.423 16.564 16.248 25.656 37.934 25.602 61.067z"/><path d="m354.688 251.446c-32.438 0-60.507 21.997-68.257 53.492-.55 2.238-.041 4.604 1.38 6.418 1.422 1.814 3.599 2.874 5.903 2.874h121.947c2.305 0 4.481-1.06 5.903-2.874 1.421-1.814 1.93-4.181 1.38-6.418-7.75-31.496-35.818-53.492-68.256-53.492zm-50.518 47.784c8.741-19.702 28.329-32.784 50.518-32.784s41.776 13.082 50.517 32.784z"/><path d="m313.326 213.955h82.724c12.406 0 22.5-10.093 22.5-22.5s-10.094-22.5-22.5-22.5h-82.724c-12.406 0-22.5 10.093-22.5 22.5s10.094 22.5 22.5 22.5zm0-30h82.724c4.136 0 7.5 3.364 7.5 7.5s-3.364 7.5-7.5 7.5h-82.724c-4.136 0-7.5-3.364-7.5-7.5s3.364-7.5 7.5-7.5z"/></g></svg>